<svg width="742" height="80" viewBox="0 0 742 80" xmlns="http://www.w3.org/2000/svg"><title>Group 3</title><g fill="none" fill-rule="evenodd"><path d="M188.053 72.833h-16.175l-21.194-65.24h14.808l14.522 45.863h.178l14.716-45.863h14.8l-21.655 65.24zm64.855 0h-16.167l-21.197-65.24h14.8l14.525 45.863h.183L259.76 7.593h14.802l-21.654 65.24zm64.858 0h-16.168l-21.201-65.24h14.8l14.521 45.863h.186L324.62 7.593h14.792l-21.646 65.24zm64.854 0h-16.175l-21.193-65.24h14.8l14.521 45.863h.186l14.714-45.863h14.794l-21.646 65.24zM446.375 6.05c20.192 0 32.065 15.066 32.065 34.437 0 18.828-11.873 33.891-32.065 33.891-20.187 0-32.063-15.066-32.063-33.89 0-19.372 11.876-34.438 32.063-34.438zm0 56.267c12.882 0 17.726-10.958 17.726-21.83 0-11.402-4.844-22.378-17.726-22.378-12.886 0-17.73 10.974-17.73 22.378 0 10.872 4.844 21.83 17.73 21.83zm79.477 10.516h-16.17L488.48 7.593h14.807l14.525 45.863h.178l14.713-45.863h14.792l-21.643 65.24zm64.849 0h-16.164l-21.208-65.24h14.808l14.52 45.863h.183l14.713-45.863h14.797l-21.649 65.24zm64.852 0H639.39l-21.202-65.24h14.808l14.514 45.863h.183l14.703-45.863h14.823l-21.665 65.24zm64.864 0H704.24l-21.196-65.24h14.802l14.514 45.863h.194l14.708-45.863h14.792l-21.638 65.24z" fill="#1E1E1C"/><path d="M.901 39.554c0 20.855 15.873 37.92 36.043 39.545V.006C16.774 1.633.901 18.698.901 39.554zm78.366 0c0-20.856-15.871-37.92-36.036-39.548V79.1c20.165-1.626 36.036-18.69 36.036-39.545z" fill="#000"/></g></svg>