<svg width="220" height="26" viewBox="0 0 220 26" xmlns="http://www.w3.org/2000/svg"><title>VOV_vvvvovvvv</title><path d="M14.134 25.195H8.126L.254.963h5.5l5.394 17.035h.066L16.68.963h5.497zm24.089 0h-6.005L24.345.963h5.497l5.395 17.035h.068L40.768.963h5.498zm24.09 0h-6.005L48.433.963h5.497l5.394 17.035h.069L64.859.963h5.494zm24.089 0h-6.008L72.522.963h5.497l5.394 17.035h.069L88.947.963h5.495zM110.082.39c7.5 0 11.91 5.596 11.91 12.791 0 6.993-4.41 12.588-11.91 12.588-7.498 0-11.909-5.596-11.909-12.588 0-7.195 4.411-12.791 11.909-12.791zm0 20.899c4.785 0 6.584-4.07 6.584-8.108 0-4.235-1.799-8.312-6.584-8.312-4.786 0-6.585 4.076-6.585 8.312 0 4.038 1.799 8.108 6.585 8.108zm29.52 3.906h-6.006L125.721.963h5.5l5.395 17.035h.066L142.147.963h5.494zm24.087 0h-6.004L149.808.963h5.5l5.393 17.035h.068L166.234.963h5.496zm24.088 0h-6.004L173.898.963h5.5l5.391 17.035h.068L190.318.963h5.506zm24.092 0h-6.008L197.988.963h5.498l5.391 17.035h.072L214.412.963h5.494z" fill="#FFF" fill-rule="evenodd"/></svg>