<svg xmlns="http://www.w3.org/2000/svg" width="340.16" height="340.16" viewBox="0 0 340.16 340.16"><path d="M132.862 139.064c0 19.551 15.079 35.549 34.241 37.073v-74.149c-19.163 1.526-34.241 17.524-34.241 37.076zm74.447 0c0-19.553-15.078-35.551-34.235-37.076v74.149c19.156-1.524 34.235-17.522 34.235-37.073z"/><path d="M74.134 237.598h-6.008l-7.873-24.232h5.5l5.394 17.034h.066l5.466-17.034h5.497l-8.042 24.232zm24.088 0h-6.005l-7.873-24.232h5.497l5.394 17.034h.069l5.463-17.034h5.498l-8.043 24.232zm24.091 0h-6.005l-7.875-24.232h5.498l5.394 17.034h.069l5.465-17.034h5.495l-8.041 24.232zm24.089 0h-6.007l-7.873-24.232h5.497l5.394 17.034h.069l5.465-17.034h5.495l-8.04 24.232zm23.68-24.806c7.5 0 11.911 5.596 11.911 12.791 0 6.993-4.41 12.589-11.911 12.589-7.498 0-11.909-5.596-11.909-12.589 0-7.195 4.41-12.791 11.909-12.791zm0 20.899c4.786 0 6.584-4.07 6.584-8.108 0-4.235-1.799-8.312-6.584-8.312s-6.584 4.076-6.584 8.312c-.001 4.038 1.798 8.108 6.584 8.108zm29.52 3.907h-6.006l-7.875-24.232h5.5l5.395 17.034h.066l5.465-17.034h5.494l-8.039 24.232zm24.087 0h-6.004l-7.877-24.232h5.5l5.393 17.034h.068l5.465-17.034h5.496l-8.041 24.232zm24.088 0h-6.004l-7.875-24.232h5.5l5.391 17.034h.068l5.461-17.034h5.506l-8.047 24.232zm24.092 0h-6.008l-7.873-24.232h5.498l5.391 17.034h.072l5.463-17.034h5.494l-8.037 24.232z" fill="#1E1E1C"/></svg>