<?xml version="1.0" encoding="UTF-8" standalone="no"?>
<svg width="220px" height="137px" viewBox="0 0 220 137" version="1.1" xmlns="http://www.w3.org/2000/svg" xmlns:xlink="http://www.w3.org/1999/xlink">
    <!-- Generator: Sketch 3.6.1 (26313) - http://www.bohemiancoding.com/sketch -->
    <title>logo</title>
    <desc>Created with Sketch.</desc>
    <defs></defs>
    <g id="Page-1" stroke="none" stroke-width="1" fill="none" fill-rule="evenodd">
        <g id="logo" transform="translate(0.000000, -1.000000)" fill="#FFFFFF">
            <g id="Group" transform="translate(72.000000, 0.000000)">
                <path d="M0.862,38.064 C0.862,57.615 15.941,73.613 35.103,75.137 L35.103,0.988 C15.94,2.514 0.862,18.512 0.862,38.064 L0.862,38.064 Z" id="Shape"></path>
                <path d="M75.309,38.064 C75.309,18.511 60.231,2.513 41.074,0.988 L41.074,75.137 C60.23,73.613 75.309,57.615 75.309,38.064 L75.309,38.064 Z" id="Shape"></path>
            </g>
            <g id="Group" transform="translate(0.000000, 111.000000)">
                <path d="M14.134,25.598 L8.126,25.598 L0.253,1.366 L5.753,1.366 L11.147,18.4 L11.213,18.4 L16.679,1.366 L22.176,1.366 L14.134,25.598 L14.134,25.598 Z" id="Shape"></path>
                <path d="M38.222,25.598 L32.217,25.598 L24.344,1.366 L29.841,1.366 L35.235,18.4 L35.304,18.4 L40.767,1.366 L46.265,1.366 L38.222,25.598 L38.222,25.598 Z" id="Shape"></path>
                <path d="M62.313,25.598 L56.308,25.598 L48.433,1.366 L53.931,1.366 L59.325,18.4 L59.394,18.4 L64.859,1.366 L70.354,1.366 L62.313,25.598 L62.313,25.598 Z" id="Shape"></path>
                <path d="M86.402,25.598 L80.395,25.598 L72.522,1.366 L78.019,1.366 L83.413,18.4 L83.482,18.4 L88.947,1.366 L94.442,1.366 L86.402,25.598 L86.402,25.598 Z" id="Shape"></path>
                <path d="M110.082,0.792 C117.582,0.792 121.993,6.388 121.993,13.583 C121.993,20.576 117.583,26.172 110.082,26.172 C102.584,26.172 98.173,20.576 98.173,13.583 C98.173,6.388 102.583,0.792 110.082,0.792 L110.082,0.792 Z M110.082,21.691 C114.868,21.691 116.666,17.621 116.666,13.583 C116.666,9.348 114.867,5.271 110.082,5.271 C105.297,5.271 103.498,9.347 103.498,13.583 C103.497,17.621 105.296,21.691 110.082,21.691 L110.082,21.691 Z" id="Shape"></path>
                <path d="M139.602,25.598 L133.596,25.598 L125.721,1.366 L131.221,1.366 L136.616,18.4 L136.682,18.4 L142.147,1.366 L147.641,1.366 L139.602,25.598 L139.602,25.598 Z" id="Shape"></path>
                <path d="M163.689,25.598 L157.685,25.598 L149.808,1.366 L155.308,1.366 L160.701,18.4 L160.769,18.4 L166.234,1.366 L171.73,1.366 L163.689,25.598 L163.689,25.598 Z" id="Shape"></path>
                <path d="M187.777,25.598 L181.773,25.598 L173.898,1.366 L179.398,1.366 L184.789,18.4 L184.857,18.4 L190.318,1.366 L195.824,1.366 L187.777,25.598 L187.777,25.598 Z" id="Shape"></path>
                <path d="M211.869,25.598 L205.861,25.598 L197.988,1.366 L203.486,1.366 L208.877,18.4 L208.949,18.4 L214.412,1.366 L219.906,1.366 L211.869,25.598 L211.869,25.598 Z" id="Shape"></path>
            </g>
        </g>
    </g>
</svg>