<?xml version="1.0" encoding="UTF-8" standalone="no"?>
<svg width="742px" height="80px" viewBox="0 0 742 80" version="1.1" xmlns="http://www.w3.org/2000/svg" xmlns:xlink="http://www.w3.org/1999/xlink">
    <!-- Generator: Sketch 3.6.1 (26313) - http://www.bohemiancoding.com/sketch -->
    <title>Group 3</title>
    <desc>Created with Sketch.</desc>
    <defs></defs>
    <g id="Page-1" stroke="none" stroke-width="1" fill="none" fill-rule="evenodd">
        <g id="Group-3">
            <g id="VOV_vvvvovvvv" transform="translate(150.000000, 5.000000)" fill="#1E1E1C">
                <g id="Group">
                    <path d="M38.0530769,67.8326923 L21.8776923,67.8326923 L0.683846154,2.59269231 L15.4915385,2.59269231 L30.0138462,48.4561538 L30.1915385,48.4561538 L44.9076923,2.59269231 L59.7073077,2.59269231 L38.0530769,67.8326923 L38.0530769,67.8326923 Z" id="Shape"></path>
                    <path d="M102.908077,67.8326923 L86.7407692,67.8326923 L65.5442308,2.59269231 L80.3438462,2.59269231 L94.8688462,48.4561538 L95.0519231,48.4561538 L109.76,2.59269231 L124.562308,2.59269231 L102.908077,67.8326923 L102.908077,67.8326923 Z" id="Shape"></path>
                    <path d="M167.765769,67.8326923 L151.598462,67.8326923 L130.396538,2.59269231 L145.196154,2.59269231 L159.718462,48.4561538 L159.904231,48.4561538 L174.620385,2.59269231 L189.411923,2.59269231 L167.765769,67.8326923 L167.765769,67.8326923 Z" id="Shape"></path>
                    <path d="M232.620769,67.8326923 L216.445385,67.8326923 L195.251538,2.59269231 L210.051154,2.59269231 L224.573462,48.4561538 L224.759231,48.4561538 L239.472692,2.59269231 L254.266923,2.59269231 L232.620769,67.8326923 L232.620769,67.8326923 Z" id="Shape"></path>
                    <path d="M296.374615,1.05 C316.566923,1.05 328.44,16.1161538 328.44,35.4873077 C328.44,54.3146154 316.566923,69.3780769 296.374615,69.3780769 C276.187692,69.3780769 264.311923,54.3119231 264.311923,35.4873077 C264.311923,16.1161538 276.187692,1.05 296.374615,1.05 L296.374615,1.05 Z M296.374615,57.3165385 C309.257308,57.3165385 314.100769,46.3588462 314.100769,35.4873077 C314.100769,24.0853846 309.257308,13.1088462 296.374615,13.1088462 C283.489231,13.1088462 278.645769,24.0826923 278.645769,35.4873077 C278.645769,46.3588462 283.489231,57.3165385 296.374615,57.3165385 L296.374615,57.3165385 Z" id="Shape"></path>
                    <path d="M375.851538,67.8326923 L359.681538,67.8326923 L338.479615,2.59269231 L353.287308,2.59269231 L367.812308,48.4561538 L367.99,48.4561538 L382.703462,2.59269231 L397.495,2.59269231 L375.851538,67.8326923 L375.851538,67.8326923 Z" id="Shape"></path>
                    <path d="M440.701154,67.8326923 L424.536538,67.8326923 L403.329231,2.59269231 L418.136923,2.59269231 L432.656538,48.4561538 L432.839615,48.4561538 L447.553077,2.59269231 L462.35,2.59269231 L440.701154,67.8326923 L440.701154,67.8326923 Z" id="Shape"></path>
                    <path d="M505.553462,67.8326923 L489.388846,67.8326923 L468.186923,2.59269231 L482.994615,2.59269231 L497.508846,48.4561538 L497.691923,48.4561538 L512.394615,2.59269231 L527.218462,2.59269231 L505.553462,67.8326923 L505.553462,67.8326923 Z" id="Shape"></path>
                    <path d="M570.416538,67.8326923 L554.241154,67.8326923 L533.044615,2.59269231 L547.846923,2.59269231 L562.361154,48.4561538 L562.555,48.4561538 L577.263077,2.59269231 L592.054615,2.59269231 L570.416538,67.8326923 L570.416538,67.8326923 Z" id="Shape"></path>
                </g>
            </g>
            <g id="Group-2" fill="#000000">
                <path d="M0.901052632,39.5541333 C0.901052632,60.4085333 16.7736842,77.4730667 36.9442105,79.0986667 L36.9442105,0.0064 C16.7747368,1.63306667 0.901052632,18.6976 0.901052632,39.5541333 L0.901052632,39.5541333 Z" id="Shape"></path>
                <path d="M79.2673684,39.5541333 C79.2673684,18.6976 63.3957895,1.63306667 43.2305263,0.0064 L43.2305263,79.0986667 C63.3957895,77.4730667 79.2673684,60.4085333 79.2673684,39.5541333 L79.2673684,39.5541333 Z" id="Shape"></path>
            </g>
        </g>
    </g>
</svg>