<?xml version="1.0" encoding="UTF-8" standalone="no"?>
<svg width="220px" height="26px" viewBox="0 0 220 26" version="1.1" xmlns="http://www.w3.org/2000/svg" xmlns:xlink="http://www.w3.org/1999/xlink">
    <!-- Generator: Sketch 3.7.2 (28276) - http://www.bohemiancoding.com/sketch -->
    <title>VOV_vvvvovvvv</title>
    <desc>Created with Sketch.</desc>
    <defs></defs>
    <g id="Page-1" stroke="none" stroke-width="1" fill="none" fill-rule="evenodd">
        <g id="VOV_vvvvovvvv" fill="#FFFFFF">
            <polygon id="Shape" points="14.134 25.195 8.126 25.195 0.254 0.963 5.754 0.963 11.148 17.998 11.214 17.998 16.68 0.963 22.177 0.963"></polygon>
            <polygon id="Shape" points="38.223 25.195 32.218 25.195 24.345 0.963 29.842 0.963 35.237 17.998 35.305 17.998 40.768 0.963 46.266 0.963"></polygon>
            <polygon id="Shape" points="62.313 25.195 56.308 25.195 48.433 0.963 53.93 0.963 59.324 17.998 59.393 17.998 64.859 0.963 70.353 0.963"></polygon>
            <polygon id="Shape" points="86.402 25.195 80.394 25.195 72.522 0.963 78.019 0.963 83.413 17.998 83.482 17.998 88.947 0.963 94.442 0.963"></polygon>
            <path d="M110.082,0.39 C117.582,0.39 121.992,5.986 121.992,13.181 C121.992,20.174 117.582,25.769 110.082,25.769 C102.584,25.769 98.173,20.173 98.173,13.181 C98.173,5.986 102.584,0.39 110.082,0.39 L110.082,0.39 Z M110.082,21.289 C114.867,21.289 116.666,17.219 116.666,13.181 C116.666,8.946 114.867,4.869 110.082,4.869 C105.296,4.869 103.497,8.945 103.497,13.181 C103.497,17.219 105.296,21.289 110.082,21.289 L110.082,21.289 Z" id="Shape"></path>
            <polygon id="Shape" points="139.602 25.195 133.596 25.195 125.721 0.963 131.221 0.963 136.616 17.998 136.682 17.998 142.147 0.963 147.641 0.963"></polygon>
            <polygon id="Shape" points="163.689 25.195 157.685 25.195 149.808 0.963 155.308 0.963 160.701 17.998 160.769 17.998 166.234 0.963 171.73 0.963"></polygon>
            <polygon id="Shape" points="187.777 25.195 181.773 25.195 173.898 0.963 179.398 0.963 184.789 17.998 184.857 17.998 190.318 0.963 195.824 0.963"></polygon>
            <polygon id="Shape" points="211.869 25.195 205.861 25.195 197.988 0.963 203.486 0.963 208.877 17.998 208.949 17.998 214.412 0.963 219.906 0.963"></polygon>
        </g>
    </g>
</svg>